<svg width="103" height="104" viewBox="0 0 103 104" fill="none" xmlns="http://www.w3.org/2000/svg">
<path d="M76.9217 22.9319C78.1533 21.5225 78.0184 19.3638 76.4813 18.296C70.8248 14.3669 63.9717 12.4482 57.0338 12.9151C48.963 13.4582 41.4384 17.1852 36.1156 23.2762C30.7927 29.3672 28.1074 37.3233 28.6506 45.3941C29.1175 52.3321 31.9371 58.8663 36.5887 63.9453C37.8528 65.3255 40.0101 65.1699 41.2417 63.7606L47.053 57.1108C48.2846 55.7014 48.1008 53.5768 47.0057 52.059C45.3881 49.8169 44.413 47.149 44.2244 44.3461C43.9592 40.4057 45.2702 36.5213 47.869 33.5475C50.4678 30.5737 54.1415 28.7541 58.0819 28.4889C60.8848 28.3003 63.6593 28.9091 66.0979 30.2117C67.7488 31.0935 69.8789 30.991 71.1105 29.5817L76.9217 22.9319Z" fill="#3F8CFF"/>
<path d="M26.0778 81.1128C24.8462 82.5221 24.9809 84.6807 26.5181 85.7484C28.8687 87.3811 31.442 88.6781 34.1643 89.5969C37.9593 90.8777 41.9694 91.3986 45.9657 91.1296C49.962 90.8607 53.8661 89.8073 57.4553 88.0295C61.0445 86.2517 64.2483 83.7844 66.884 80.7684C69.5196 77.7525 71.5354 74.2469 72.8162 70.4519C74.0971 66.6569 74.6179 62.6468 74.3489 58.6505C74.08 54.6543 73.0266 50.7501 71.2488 47.1609C69.9736 44.5863 68.3435 42.2099 66.4106 40.0993C65.1465 38.719 62.9894 38.8747 61.7578 40.2841L55.9465 46.9339C54.7149 48.3432 54.8986 50.4678 55.9937 51.9856C56.4724 52.6491 56.8967 53.3525 57.2616 54.089C58.1295 55.8414 58.6438 57.7475 58.7751 59.6986C58.9064 61.6497 58.6522 63.6075 58.0268 65.4604C57.4015 67.3132 56.4173 69.0247 55.1305 70.4972C53.8437 71.9697 52.2795 73.1743 50.5272 74.0422C48.7749 74.9102 46.8687 75.4245 44.9176 75.5558C42.9665 75.6871 41.0087 75.4328 39.1559 74.8075C38.377 74.5446 37.6232 74.2184 36.9015 73.8329C35.2507 72.951 33.1206 73.0537 31.889 74.463L26.0778 81.1128Z" fill="#3F8CFF"/>
</svg>
